<svg width="774" height="150" viewBox="0 0 774 150" fill="none" xmlns="http://www.w3.org/2000/svg">
<path d="M182.112 -31.1903C131.185 -7.94338 88.9051 15.4342 57.981 37.4452C27.0568 59.4561 8.1701 79.6151 2.53047 96.631C-3.10916 113.647 4.62265 127.144 25.2307 136.259C45.8387 145.374 78.8686 149.905 122.205 149.562C165.541 149.219 218.228 144.01 276.891 134.268C335.554 124.526 398.901 110.466 462.872 92.9881C526.844 75.5106 590.031 55.0011 648.385 32.7731C706.74 10.545 758.976 -12.9114 801.748 -36.0937L567.496 -23.6084C554.054 -16.3226 537.637 -8.9507 519.297 -1.96484C500.957 5.02102 481.099 11.4668 460.994 16.9597C440.889 22.4525 420.98 26.8713 402.544 29.9331C384.107 32.9949 367.548 34.6321 353.928 34.7398C340.309 34.8476 329.928 33.4236 323.451 30.559C316.975 27.6944 314.545 23.4523 316.317 18.1045C318.089 12.7568 324.025 6.42116 333.744 -0.496471C343.463 -7.41411 356.751 -14.7613 372.756 -22.0673L182.112 -31.1903Z" fill="white" fill-opacity="0.15"/>
</svg>
