<svg width="48" height="48" viewBox="0 0 48 48" fill="none" xmlns="http://www.w3.org/2000/svg">
<path d="M20 26.0001C20.8589 27.1483 21.9547 28.0984 23.2131 28.7859C24.4715 29.4734 25.863 29.8823 27.2933 29.9847C28.7236 30.0872 30.1592 29.8808 31.5027 29.3796C32.8462 28.8784 34.0662 28.0942 35.08 27.0801L41.08 21.0801C42.9016 19.194 43.9095 16.668 43.8867 14.046C43.864 11.4241 42.8123 8.91595 40.9582 7.06187C39.1041 5.20779 36.596 4.1561 33.974 4.13331C31.352 4.11053 28.826 5.11847 26.94 6.94005L23.5 10.3601M28 22.0001C27.1411 20.8518 26.0453 19.9017 24.7869 19.2142C23.5285 18.5267 22.137 18.1178 20.7067 18.0154C19.2764 17.913 17.8408 18.1193 16.4973 18.6205C15.1538 19.1217 13.9338 19.9059 12.92 20.9201L6.92 26.9201C5.09842 28.8061 4.09048 31.3321 4.11326 33.9541C4.13605 36.576 5.18774 39.0842 7.04182 40.9382C8.8959 42.7923 11.404 43.844 14.026 43.8668C16.648 43.8896 19.174 42.8816 21.06 41.0601L24.48 37.6401" stroke="#1E1E1E" stroke-width="4" stroke-linecap="round" stroke-linejoin="round"/>
</svg>
